<?xml version="1.0" encoding="utf-8"?>
<!-- Generator: Adobe Illustrator 22.0.1, SVG Export Plug-In . SVG Version: 6.00 Build 0)  -->
<svg version="1.1" id="Layer_1" xmlns="http://www.w3.org/2000/svg" xmlns:xlink="http://www.w3.org/1999/xlink" x="0px" y="0px"
	 viewBox="0 0 452.9 480.6" style="enable-background:new 0 0 452.9 480.6;" xml:space="preserve">
<style type="text/css">
	.st0{fill:#D9E13D;}
</style>
<g>
	<path class="st0" d="M264.7,214.5c0,0,103,0.3,96.3,78.3c0,0-13.3,111.3,82,110c0,0-12.8,53.3-72.7,63.3c0,0-77.1,14-105-75
		c0,0-12.3-37.7,6-102.7C271.3,288.5,292.2,224.2,264.7,214.5z"/>
	<path class="st0" d="M435,99.5c-32-98-171.3-85.3-171.3-85.3C147,25.5,127.2,145.7,123,160.2c0,0-20,124-112.7,80.9
		c0,0-8.6,57.1,48.7,80.4c0,0,59.3,23.3,106-26c0,0,24.7-22.3,40.3-96.3c0,0,8.4-53,25.4-76c22.8-32.7,56.7-29.4,56.7-29.4
		c49.3,0,59.6,36.3,59.6,36.3c20.7,70.7-72.7,65.3-72.7,65.3c61.3,42.7,114.7,12.7,114.7,12.7C455,167.5,435,99.5,435,99.5z"/>
</g>
</svg>
